<svg width="50" height="50" viewBox="0 0 50 50" fill="none" xmlns="http://www.w3.org/2000/svg">
<g id="instagram 4">
<g id="Group">
<g id="Group_2">
<path id="Vector" d="M16.8594 5.46875C10.579 5.46875 5.46875 10.582 5.46875 16.864V33.139C5.46875 39.4203 10.582 44.5312 16.864 44.5312H33.139C39.4203 44.5312 44.5312 39.418 44.5312 33.136V16.8594C44.5312 10.579 39.418 5.46875 33.136 5.46875H16.8594ZM36.7188 11.7188C37.5812 11.7188 38.2812 12.4187 38.2812 13.2812C38.2812 14.1438 37.5812 14.8438 36.7188 14.8438C35.8563 14.8438 35.1562 14.1438 35.1562 13.2812C35.1562 12.4187 35.8563 11.7188 36.7188 11.7188ZM25 14.8438C30.6016 14.8438 35.1562 19.3984 35.1562 25C35.1562 30.6016 30.6008 35.1562 25 35.1562C19.3984 35.1562 14.8438 30.6008 14.8438 25C14.8438 19.3992 19.3984 14.8438 25 14.8438ZM25 17.9688C21.1164 17.9688 17.9688 21.1164 17.9688 25C17.9688 28.8836 21.1164 32.0312 25 32.0312C28.8836 32.0312 32.0312 28.8836 32.0312 25C32.0312 21.1164 28.8836 17.9688 25 17.9688Z" fill="#F5C643"/>
</g>
</g>
</g>
</svg>
