<svg width="46" height="46" viewBox="0 0 46 46" fill="none" xmlns="http://www.w3.org/2000/svg">
<g id="tiktok 4">
<g id="Group">
<g id="Group_2">
<path id="Vector" d="M37.7199 3.67969H8.27993C5.74349 3.67969 3.67993 5.74325 3.67993 8.27969V37.7197C3.67993 40.2561 5.74349 42.3197 8.27993 42.3197H37.7199C40.2564 42.3197 42.3199 40.2561 42.3199 37.7197V8.27969C42.3199 5.74325 40.2564 3.67969 37.7199 3.67969ZM34.0455 20.5368C33.8366 20.5562 33.625 20.569 33.4107 20.569C30.9975 20.569 28.8769 19.328 27.6432 17.4521C27.6432 22.3732 27.6432 27.9723 27.6432 28.0661C27.6432 32.3984 24.1306 35.911 19.7983 35.911C15.4661 35.911 11.9535 32.3984 11.9535 28.0661C11.9535 23.7338 15.4661 20.2213 19.7983 20.2213C19.9621 20.2213 20.1222 20.236 20.2832 20.2461V24.112C20.1222 24.0926 19.9639 24.0632 19.7983 24.0632C17.5867 24.0632 15.7945 25.8554 15.7945 28.067C15.7945 30.2787 17.5867 32.0709 19.7983 32.0709C22.01 32.0709 23.9632 30.3284 23.9632 28.1167C23.9632 28.0293 24.0018 10.0902 24.0018 10.0902H27.6965C28.0443 13.394 30.7114 16.0012 34.0455 16.2404V20.5368Z" fill="#F5C643"/>
</g>
</g>
</g>
</svg>
